# xmcd
#
# Track frame offsets:
#	182
#	2950
#	27160
#	38762
#	49827
#	67500
#	90070
#	100172
#	103415
#	118627
#	137645
#	153440
#	171040
#	184180
#	199175
#	208660
#	219422
#	231275
#	258107
#	269787
#	277925
#	299982
#
# Disc length: 4460 seconds
#
# Revision: 2
# Processed by: cddbd v1.4PL0 Copyright (c) Steve Scherf et al.
# Submitted via: EZCDDA 4.3.2
#
DISCID=3e116a16
DTITLE=Plavci - live 1970, 1978, 1994
DYEAR=1900
DGENRE=
TTITLE0=Uvod
TTITLE1=Tricentova opera
TTITLE2=Sest Svicek
TTITLE3=Vim, vim
TTITLE4=Pole s Bavlnou
TTITLE5=Pojd ven - Marjanka
TTITLE6=Pojd dal
TTITLE7=Uvod
TTITLE8=Lenka
TTITLE9=Destiva Nalada
TTITLE10=Frantiska a Jenik
TTITLE11=S Namahou
TTITLE12=Nekdy Ty, nekdy ja
TTITLE13=Pes suveren
TTITLE14=Uvod
TTITLE15=Hi Jolly
TTITLE16=Zlamana ruze
TTITLE17=Petr Narozny vzpomina
TTITLE18=Mississippi
TTITLE19=Dostavnik
TTITLE20=Jsi mym osudem
TTITLE21=Smes
EXTD=
EXTT0=
EXTT1=
EXTT2=
EXTT3=
EXTT4=
EXTT5=
EXTT6=
EXTT7=
EXTT8=
EXTT9=
EXTT10=
EXTT11=
EXTT12=
EXTT13=
EXTT14=
EXTT15=
EXTT16=
EXTT17=
EXTT18=
EXTT19=
EXTT20=
EXTT21=
PLAYORDER=
